<svg width="84" height="97" viewBox="0 0 84 97" fill="none" xmlns="http://www.w3.org/2000/svg">
<path d="M20 9C11.1635 9 4 16.1635 4 25V73C4 81.8366 11.1634 89 20 89H68C76.8366 89 84 81.8366 84 73V25C84 16.1635 76.8366 9 68 9H20Z" fill="#323232"/>
<ellipse cx="46" cy="50.5" rx="30" ry="30.5" fill="white"/>
<path d="M42.0572 13.411C41.9487 13.428 41.8403 13.4677 41.8175 13.5017C41.7947 13.5357 41.4294 13.5697 40.836 13.5867C40.0827 13.6093 39.8887 13.6263 39.8887 13.6886C39.8887 13.751 39.7574 13.768 39.2667 13.768C38.7873 13.768 38.6218 13.7906 38.5591 13.853C38.4963 13.9096 38.2908 13.9493 37.8971 13.9719C37.4691 14.0003 37.3207 14.0343 37.3207 14.0909C37.3207 14.1476 37.1838 14.1646 36.7216 14.1646C36.2536 14.1646 36.1224 14.1816 36.1224 14.2439C36.1224 14.2949 36.0082 14.3289 35.7457 14.3515C35.5232 14.3685 35.3463 14.4082 35.3178 14.4535C35.2949 14.4989 35.1237 14.5385 34.9012 14.5499C34.6273 14.5669 34.5245 14.5952 34.5245 14.6518C34.5245 14.7142 34.4332 14.7312 34.1536 14.7312C33.874 14.7312 33.7827 14.7482 33.7827 14.8105C33.7827 14.9068 33.6058 14.9578 33.2862 14.9578C33.1036 14.9578 33.0408 14.9805 33.0408 15.0428C33.0408 15.1108 32.9667 15.1278 32.727 15.1278C32.4873 15.1278 32.4131 15.1504 32.4131 15.2128C32.4131 15.2694 32.3218 15.3034 32.1278 15.3317C31.9452 15.3544 31.8425 15.3941 31.8425 15.4451C31.8425 15.4961 31.774 15.5244 31.6428 15.5244C31.5058 15.5244 31.443 15.5527 31.443 15.6094C31.443 15.666 31.386 15.6944 31.2889 15.6944C31.0436 15.6944 30.8724 15.7567 30.8724 15.8417C30.8724 15.8927 30.8039 15.921 30.6726 15.921C30.5357 15.921 30.4729 15.9493 30.4729 16.006C30.4729 16.0683 30.4044 16.091 30.1933 16.091C29.965 16.091 29.908 16.108 29.8851 16.2043C29.8623 16.2893 29.8053 16.3176 29.6797 16.3176C29.5599 16.3176 29.5028 16.3459 29.5028 16.4026C29.5028 16.4593 29.44 16.4876 29.3031 16.4876C29.1661 16.4876 29.1033 16.5159 29.1033 16.5726C29.1033 16.6292 29.012 16.6632 28.818 16.6916C28.6354 16.7142 28.5327 16.7539 28.5327 16.8049C28.5327 16.8559 28.4642 16.8842 28.333 16.8842C28.2017 16.8842 28.1332 16.9125 28.1332 16.9635C28.1332 17.0089 28.0476 17.0598 27.9335 17.0768C27.8137 17.0995 27.7338 17.1505 27.7338 17.1958C27.7338 17.2411 27.6824 17.2808 27.6197 17.2808C27.5569 17.2808 27.5055 17.3205 27.5055 17.3658C27.5055 17.4225 27.4428 17.4508 27.3058 17.4508C27.1688 17.4508 27.1061 17.4791 27.1061 17.5301C27.1061 17.5754 27.0319 17.6264 26.9349 17.6491C26.8436 17.6718 26.7637 17.7228 26.7637 17.7681C26.7637 17.8191 26.7009 17.8474 26.5639 17.8474C26.427 17.8474 26.3642 17.8757 26.3642 17.9324C26.3642 17.989 26.3072 18.0174 26.1873 18.0174C26.0618 18.0174 26.0047 18.0457 25.9819 18.1307C25.9591 18.2157 25.902 18.244 25.7593 18.244C25.6224 18.244 25.5653 18.2723 25.5653 18.329C25.5653 18.3857 25.5082 18.414 25.3884 18.414C25.2629 18.414 25.2058 18.4423 25.183 18.5273C25.1601 18.6066 25.1031 18.6406 24.9889 18.6406C24.8805 18.6406 24.8235 18.669 24.8235 18.7256C24.8235 18.7709 24.7721 18.8106 24.7093 18.8106C24.6466 18.8106 24.5952 18.8503 24.5952 18.8956C24.5952 18.9409 24.5153 18.9919 24.3955 19.0146C24.2813 19.0316 24.1957 19.0826 24.1957 19.1279C24.1957 19.1789 24.133 19.2072 24.0245 19.2072C23.9047 19.2072 23.8533 19.2355 23.8533 19.2979C23.8533 19.3489 23.802 19.3999 23.7392 19.4169C23.6764 19.4339 23.6251 19.4848 23.6251 19.5245C23.6251 19.5698 23.5737 19.6038 23.511 19.6038C23.4482 19.6038 23.3968 19.6435 23.3968 19.6888C23.3968 19.7455 23.3398 19.7738 23.2256 19.7738C23.0944 19.7738 23.0544 19.7965 23.0544 19.8871C23.0544 19.9608 23.0145 20.0004 22.9403 20.0004C22.8775 20.0004 22.8262 20.0401 22.8262 20.0854C22.8262 20.1421 22.7691 20.1704 22.655 20.1704C22.5466 20.1704 22.4838 20.1987 22.4838 20.2497C22.4838 20.2894 22.4324 20.3404 22.3697 20.3574C22.3069 20.3744 22.2555 20.4254 22.2555 20.4764C22.2555 20.5387 22.2042 20.567 22.0843 20.567C21.9702 20.567 21.9131 20.5954 21.9131 20.652C21.9131 20.6973 21.8618 20.737 21.799 20.737C21.7248 20.737 21.6849 20.7767 21.6849 20.8503C21.6849 20.924 21.6449 20.9636 21.5707 20.9636C21.508 20.9636 21.4566 20.9976 21.4566 21.043C21.4566 21.0883 21.3824 21.1393 21.2854 21.1619C21.1884 21.1846 21.1142 21.2356 21.1142 21.2809C21.1142 21.3263 21.0629 21.3603 21.0001 21.3603C20.9373 21.3603 20.886 21.3999 20.886 21.4452C20.886 21.4906 20.846 21.5302 20.8004 21.5302C20.7547 21.5302 20.7148 21.5699 20.7148 21.6152C20.7148 21.6605 20.6748 21.7002 20.6235 21.7002C20.5721 21.7002 20.5207 21.7512 20.5036 21.8135C20.4808 21.8928 20.4237 21.9268 20.3153 21.9268C20.2069 21.9268 20.1498 21.9608 20.127 22.0402C20.1099 22.1025 20.0585 22.1535 20.0072 22.1535C19.9558 22.1535 19.9158 22.1931 19.9158 22.2385C19.9158 22.2838 19.8759 22.3235 19.8302 22.3235C19.7846 22.3235 19.7447 22.3631 19.7447 22.4084C19.7447 22.4538 19.6933 22.4934 19.6305 22.4934C19.5563 22.4934 19.5164 22.5331 19.5164 22.6068C19.5164 22.6691 19.4764 22.7201 19.4308 22.7201C19.3851 22.7201 19.3452 22.7597 19.3452 22.8051C19.3452 22.8504 19.2938 22.89 19.2311 22.89C19.1683 22.89 19.1169 22.9297 19.1169 22.975C19.1169 23.0204 19.077 23.06 19.0313 23.06C18.9857 23.06 18.9457 23.111 18.9457 23.1733C18.9457 23.247 18.9058 23.2867 18.8316 23.2867C18.7688 23.2867 18.7175 23.3207 18.7175 23.366C18.7175 23.4113 18.6376 23.4623 18.5463 23.485C18.4493 23.5076 18.3751 23.5586 18.3751 23.6039C18.3751 23.6493 18.3351 23.6833 18.2895 23.6833C18.2438 23.6833 18.2039 23.7229 18.2039 23.7683C18.2039 23.8136 18.1525 23.8532 18.0898 23.8532C18.0156 23.8532 17.9756 23.8929 17.9756 23.9666C17.9756 24.0289 17.9357 24.0799 17.89 24.0799C17.8444 24.0799 17.8044 24.1195 17.8044 24.1649C17.8044 24.2102 17.7531 24.2499 17.6903 24.2499C17.6161 24.2499 17.5762 24.2895 17.5762 24.3632C17.5762 24.4255 17.5362 24.4765 17.4906 24.4765C17.4449 24.4765 17.405 24.5162 17.405 24.5615C17.405 24.6068 17.3536 24.6465 17.2908 24.6465C17.2167 24.6465 17.1767 24.6861 17.1767 24.7598C17.1767 24.8221 17.1368 24.8731 17.0911 24.8731C17.0455 24.8731 17.0055 24.9128 17.0055 24.9581C17.0055 25.0034 16.9713 25.0431 16.9256 25.0431C16.8857 25.0431 16.8343 25.0941 16.8172 25.1564C16.8001 25.2187 16.7487 25.2697 16.6974 25.2697C16.646 25.2697 16.6061 25.3094 16.6061 25.3547C16.6061 25.4 16.5718 25.4397 16.5262 25.4397C16.4805 25.4397 16.4292 25.5133 16.4063 25.6097C16.3835 25.7003 16.3322 25.7796 16.2865 25.7796C16.2408 25.7796 16.2066 25.8306 16.2066 25.893C16.2066 25.9553 16.1667 26.0063 16.121 26.0063C16.0754 26.0063 16.0354 26.0459 16.0354 26.0913C16.0354 26.1366 15.9841 26.1763 15.9213 26.1763C15.8471 26.1763 15.8072 26.2159 15.8072 26.2896C15.8072 26.3519 15.7672 26.4029 15.7216 26.4029C15.6759 26.4029 15.636 26.4426 15.636 26.4879C15.636 26.5332 15.6017 26.5729 15.5561 26.5729C15.5161 26.5729 15.4648 26.6239 15.4476 26.6862C15.4305 26.7485 15.3792 26.7995 15.3278 26.7995C15.265 26.7995 15.2365 26.8505 15.2365 26.9695C15.2365 27.0885 15.208 27.1395 15.1452 27.1395C15.0938 27.1395 15.0425 27.1905 15.0254 27.2528C15.0082 27.3151 14.9569 27.3661 14.9169 27.3661C14.8713 27.3661 14.837 27.4058 14.837 27.4511C14.837 27.4964 14.7971 27.5361 14.7514 27.5361C14.7058 27.5361 14.6658 27.5871 14.6658 27.6494C14.6658 27.723 14.6259 27.7627 14.5517 27.7627C14.4889 27.7627 14.4376 27.8024 14.4376 27.8477C14.4376 27.893 14.3976 27.9327 14.352 27.9327C14.2949 27.9327 14.2664 27.995 14.2664 28.131C14.2664 28.2896 14.2436 28.3293 14.1523 28.3293C14.0781 28.3293 14.0381 28.369 14.0381 28.4426C14.0381 28.5049 14.0039 28.5559 13.9582 28.5559C13.9126 28.5559 13.8612 28.6296 13.8384 28.7202C13.8213 28.8109 13.7642 28.9016 13.7186 28.9185C13.6729 28.9355 13.6387 28.9865 13.6387 29.0375C13.6387 29.0829 13.5987 29.1225 13.5531 29.1225C13.496 29.1225 13.4675 29.1792 13.4675 29.2925C13.4675 29.4001 13.4389 29.4625 13.3876 29.4625C13.3476 29.4625 13.2963 29.5135 13.2792 29.5758C13.262 29.6381 13.2107 29.6891 13.1593 29.6891C13.0966 29.6891 13.068 29.7401 13.068 29.8591C13.068 29.9724 13.0395 30.0291 12.9824 30.0291C12.9368 30.0291 12.8968 30.0801 12.8968 30.1424C12.8968 30.2047 12.8569 30.2557 12.8112 30.2557C12.7656 30.2557 12.7142 30.335 12.6914 30.454C12.6743 30.5673 12.6229 30.6523 12.5773 30.6523C12.5316 30.6523 12.4974 30.7033 12.4974 30.7656C12.4974 30.828 12.4631 30.8789 12.4175 30.8789C12.3718 30.8789 12.3205 30.9526 12.2976 31.0489C12.2748 31.1396 12.2235 31.2189 12.1778 31.2189C12.1264 31.2189 12.0979 31.2812 12.0979 31.4172C12.0979 31.5475 12.0694 31.6155 12.018 31.6155C11.9724 31.6155 11.921 31.7005 11.9039 31.8138C11.8811 31.9328 11.8297 32.0121 11.7841 32.0121C11.7384 32.0121 11.6985 32.0631 11.6985 32.1254C11.6985 32.1878 11.6585 32.2388 11.6129 32.2388C11.5558 32.2388 11.5273 32.2954 11.5273 32.4087C11.5273 32.5221 11.4987 32.5787 11.4417 32.5787C11.396 32.5787 11.3447 32.658 11.3218 32.777C11.3047 32.8903 11.2533 32.9753 11.2077 32.9753C11.1563 32.9753 11.1278 33.0433 11.1278 33.1736C11.1278 33.3096 11.0993 33.3719 11.0479 33.3719C11.0023 33.3719 10.9509 33.4456 10.9281 33.5362C10.911 33.6269 10.8539 33.7176 10.8082 33.7346C10.7626 33.7516 10.7283 33.8422 10.7283 33.9385C10.7283 34.0462 10.6998 34.1085 10.6485 34.1085C10.6028 34.1085 10.5514 34.1935 10.5343 34.3011C10.5115 34.4088 10.4601 34.5108 10.4145 34.5278C10.3631 34.5448 10.3289 34.6298 10.3289 34.7318C10.3289 34.8451 10.3004 34.9017 10.2433 34.9017C10.1862 34.9017 10.1577 34.9641 10.1577 35.1C10.1577 35.2303 10.1292 35.2983 10.0778 35.2983C10.0322 35.2983 9.98079 35.3833 9.96367 35.4966C9.94085 35.6156 9.88949 35.695 9.84384 35.695C9.78677 35.695 9.75824 35.7573 9.75824 35.8933C9.75824 36.0292 9.7297 36.0916 9.67264 36.0916C9.61557 36.0916 9.58704 36.1482 9.58704 36.2445C9.58704 36.4882 9.52427 36.6581 9.43867 36.6581C9.38731 36.6581 9.35878 36.7261 9.35878 36.8565C9.35878 36.9924 9.33025 37.0548 9.27318 37.0548C9.21041 37.0548 9.18759 37.1228 9.18759 37.3381C9.18759 37.542 9.16476 37.6214 9.10769 37.6214C9.0221 37.6214 8.95932 37.7913 8.95932 38.0293C8.95932 38.1313 8.93079 38.1879 8.87373 38.1879C8.81095 38.1879 8.78813 38.2503 8.78813 38.3862C8.78813 38.5052 8.75389 38.6016 8.70824 38.6185C8.65688 38.6355 8.61693 38.7829 8.5884 39.0152C8.55987 39.2701 8.52563 39.3778 8.46856 39.3778C8.4115 39.3778 8.38867 39.4514 8.38867 39.6611C8.38867 39.8764 8.36585 39.9444 8.30307 39.9444C8.2403 39.9444 8.21748 40.0067 8.21748 40.1653C8.21748 40.4996 8.1547 40.7376 8.06911 40.7376C8.00634 40.7376 7.98922 40.8339 7.98922 41.1342C7.98922 41.4345 7.9721 41.5308 7.90932 41.5308C7.85226 41.5308 7.82373 41.6441 7.80661 41.9841C7.79519 42.3127 7.76666 42.4544 7.70389 42.494C7.64112 42.5337 7.61259 42.6867 7.60117 43.0889C7.58405 43.5025 7.56123 43.6272 7.49845 43.6272C7.43568 43.6272 7.41856 43.7915 7.41856 44.5054C7.41856 45.2136 7.40144 45.3836 7.33867 45.3836C7.2759 45.3836 7.25307 45.6782 7.21883 46.9417C7.19601 47.7973 7.15606 48.4999 7.12753 48.4999C7.05905 48.4999 7.05905 50.0126 7.12753 50.041C7.15606 50.0523 7.20172 50.8399 7.22454 51.7974C7.25307 53.2082 7.2759 53.5425 7.33867 53.5425C7.40144 53.5425 7.41856 53.7181 7.41856 54.4207C7.41856 55.1233 7.43568 55.2989 7.49845 55.2989C7.55552 55.2989 7.58405 55.4406 7.60688 55.8428C7.6297 56.2055 7.66394 56.4094 7.7153 56.4378C7.76666 56.4718 7.79519 56.6474 7.81231 56.9704C7.82373 57.333 7.84655 57.452 7.90932 57.452C7.9721 57.452 7.98922 57.5426 7.98922 57.8202C7.98922 58.0979 8.01204 58.1942 8.08623 58.2339C8.1547 58.2735 8.18894 58.3868 8.20606 58.6361C8.22318 58.8798 8.25172 58.9817 8.30878 58.9817C8.36585 58.9817 8.38867 59.0611 8.38867 59.265C8.38867 59.469 8.4115 59.5483 8.46856 59.5483C8.54275 59.5483 8.61693 59.7806 8.61693 60.0129C8.61693 60.0753 8.65688 60.1603 8.70253 60.2056C8.74818 60.2566 8.78813 60.3926 8.78813 60.5172C8.78813 60.6758 8.81095 60.7382 8.87373 60.7382C8.93079 60.7382 8.95932 60.7948 8.95932 60.8912C8.95932 61.1348 9.0221 61.3048 9.10769 61.3048C9.16476 61.3048 9.18759 61.3841 9.18759 61.5881C9.18759 61.8034 9.21041 61.8713 9.27318 61.8713C9.33025 61.8713 9.35878 61.9337 9.35878 62.0697C9.35878 62.2056 9.38731 62.268 9.44438 62.268C9.49003 62.268 9.54139 62.3473 9.56422 62.4663C9.58134 62.5796 9.63269 62.6646 9.67835 62.6646C9.73541 62.6646 9.75824 62.7439 9.75824 62.9479C9.75824 63.1575 9.78106 63.2312 9.84384 63.2312C9.88949 63.2312 9.94085 63.3105 9.96367 63.4295C9.98079 63.5428 10.0322 63.6278 10.0778 63.6278C10.1292 63.6278 10.1577 63.6958 10.1577 63.8261C10.1577 63.9621 10.1862 64.0244 10.2433 64.0244C10.3004 64.0244 10.3289 64.081 10.3289 64.1774C10.3289 64.421 10.3917 64.591 10.4773 64.591C10.5286 64.591 10.5572 64.659 10.5572 64.7893C10.5572 64.9253 10.5857 64.9876 10.6427 64.9876C10.6884 64.9876 10.7283 65.0386 10.7283 65.1009C10.7283 65.1632 10.7797 65.2596 10.8425 65.3105C10.9052 65.3672 10.9566 65.4805 10.9566 65.5655C10.9566 65.6675 10.9851 65.7242 11.0422 65.7242C11.0936 65.7242 11.1278 65.7751 11.1278 65.8658C11.1278 65.9565 11.162 66.0074 11.2134 66.0074C11.2705 66.0074 11.299 66.0641 11.299 66.1774C11.299 66.3077 11.3218 66.3474 11.4131 66.3474C11.5044 66.3474 11.5273 66.3871 11.5273 66.5457C11.5273 66.6817 11.5558 66.744 11.6129 66.744C11.6699 66.744 11.6985 66.8007 11.6985 66.9197C11.6985 67.0443 11.727 67.101 11.8126 67.1236C11.8925 67.1463 11.9267 67.203 11.9267 67.3163C11.9267 67.4239 11.9552 67.4806 12.0123 67.4806C12.058 67.4806 12.0979 67.5316 12.0979 67.5939C12.0979 67.6562 12.1322 67.7072 12.1778 67.7072C12.2235 67.7072 12.2748 67.7922 12.2919 67.9055C12.3148 68.0245 12.3661 68.1038 12.4118 68.1038C12.4688 68.1038 12.4974 68.1605 12.4974 68.2738C12.4974 68.3871 12.5259 68.4438 12.583 68.4438C12.6286 68.4438 12.6686 68.4948 12.6686 68.5571C12.6686 68.6308 12.7085 68.6704 12.7827 68.6704C12.874 68.6704 12.8968 68.7101 12.8968 68.8687C12.8968 69.0047 12.9254 69.067 12.9824 69.067C13.0281 69.067 13.068 69.101 13.068 69.1407C13.068 69.1803 13.1194 69.254 13.1822 69.3107C13.2449 69.3617 13.2963 69.458 13.2963 69.5203C13.2963 69.5826 13.3362 69.6336 13.3819 69.6336C13.4275 69.6336 13.4675 69.6846 13.4675 69.7469C13.4675 69.8093 13.5017 69.8603 13.5474 69.8603C13.593 69.8603 13.6444 69.9396 13.6672 70.0302C13.69 70.1265 13.7414 70.2002 13.787 70.2002C13.8327 70.2002 13.8669 70.2512 13.8669 70.3135C13.8669 70.3758 13.9069 70.4268 13.9525 70.4268C13.9982 70.4268 14.0381 70.4608 14.0381 70.5062C14.0381 70.5458 14.0895 70.5968 14.1523 70.6138C14.215 70.6308 14.2664 70.6818 14.2664 70.7328C14.2664 70.7838 14.3063 70.8235 14.352 70.8235C14.4091 70.8235 14.4376 70.8801 14.4376 70.9878C14.4376 71.1011 14.4718 71.1577 14.5517 71.1804C14.6145 71.1974 14.6658 71.2484 14.6658 71.2994C14.6658 71.3504 14.7058 71.39 14.7514 71.39C14.7971 71.39 14.837 71.441 14.837 71.5034C14.837 71.5657 14.8713 71.6167 14.9169 71.6167C14.9626 71.6167 15.0139 71.6903 15.0368 71.7867C15.0596 71.8773 15.111 71.9566 15.1566 71.9566C15.2023 71.9566 15.2365 72.0076 15.2365 72.0699C15.2365 72.1436 15.2764 72.1833 15.3506 72.1833C15.4134 72.1833 15.4648 72.2229 15.4648 72.2683C15.4648 72.3136 15.5047 72.3532 15.5504 72.3532C15.596 72.3532 15.636 72.4042 15.636 72.4666C15.636 72.5289 15.6702 72.5799 15.7158 72.5799C15.7615 72.5799 15.8129 72.6592 15.8357 72.7499C15.8585 72.8462 15.9099 72.9198 15.9555 72.9198C16.0012 72.9198 16.0354 72.9708 16.0354 73.0331C16.0354 73.0955 16.0754 73.1465 16.121 73.1465C16.1667 73.1465 16.2066 73.1861 16.2066 73.2315C16.2066 73.2768 16.2466 73.3164 16.2979 73.3164C16.3493 73.3164 16.4006 73.3674 16.4177 73.4298C16.4349 73.4921 16.4862 73.5431 16.5262 73.5431C16.5718 73.5431 16.6061 73.5827 16.6061 73.6281C16.6061 73.6734 16.6403 73.7131 16.686 73.7131C16.7259 73.7131 16.7773 73.764 16.7944 73.8264C16.8115 73.8887 16.8629 73.9397 16.9142 73.9397C16.9656 73.9397 17.0055 73.9794 17.0055 74.0247C17.0055 74.07 17.0455 74.1097 17.0911 74.1097C17.1368 74.1097 17.1767 74.1493 17.1767 74.1947C17.1767 74.24 17.2167 74.2796 17.268 74.2796C17.3194 74.2796 17.3707 74.3306 17.3879 74.393C17.405 74.4553 17.4563 74.5063 17.4963 74.5063C17.5419 74.5063 17.5762 74.5459 17.5762 74.5913C17.5762 74.6366 17.6104 74.6763 17.6561 74.6763C17.696 74.6763 17.7474 74.7272 17.7645 74.7896C17.7816 74.8519 17.833 74.9029 17.8843 74.9029C17.9357 74.9029 17.9756 74.9426 17.9756 74.9879C17.9756 75.0332 18.0156 75.0729 18.0612 75.0729C18.1069 75.0729 18.1468 75.1125 18.1468 75.1579C18.1468 75.2032 18.1868 75.2428 18.2381 75.2428C18.2895 75.2428 18.3408 75.2938 18.358 75.3562C18.3751 75.4185 18.4264 75.4695 18.4664 75.4695C18.512 75.4695 18.5463 75.5091 18.5463 75.5545C18.5463 75.5998 18.5976 75.6395 18.6604 75.6395C18.7232 75.6395 18.7745 75.6791 18.7745 75.7244C18.7745 75.7698 18.8145 75.8094 18.8601 75.8094C18.9058 75.8094 18.9457 75.8604 18.9457 75.9228C18.9457 76.0134 18.9857 76.0361 19.1226 76.0361C19.2482 76.0361 19.3053 76.0644 19.3281 76.1494C19.3452 76.2117 19.3966 76.2627 19.4365 76.2627C19.4822 76.2627 19.5164 76.3024 19.5164 76.3477C19.5164 76.393 19.5677 76.4327 19.6305 76.4327C19.6933 76.4327 19.7447 76.4723 19.7447 76.5177C19.7447 76.563 19.7846 76.6027 19.8302 76.6027C19.8759 76.6027 19.9158 76.6537 19.9158 76.716C19.9158 76.7896 19.9558 76.8293 20.03 76.8293C20.0927 76.8293 20.1441 76.8633 20.1441 76.9086C20.1441 76.9539 20.224 77.0049 20.3153 77.0276C20.4123 77.0503 20.4865 77.1013 20.4865 77.1466C20.4865 77.1919 20.5379 77.2259 20.6006 77.2259C20.6634 77.2259 20.7148 77.2656 20.7148 77.3109C20.7148 77.3562 20.7547 77.3959 20.8004 77.3959C20.846 77.3959 20.886 77.4355 20.886 77.4809C20.886 77.5262 20.9658 77.5772 21.0857 77.5999C21.1998 77.6169 21.2854 77.6678 21.2854 77.7132C21.2854 77.7585 21.3197 77.7925 21.3653 77.7925C21.4053 77.7925 21.4566 77.8435 21.4737 77.9058C21.4908 77.9681 21.5422 78.0191 21.5936 78.0191C21.6449 78.0191 21.6849 78.0588 21.6849 78.1041C21.6849 78.1608 21.7419 78.1891 21.8561 78.1891C21.9702 78.1891 22.0273 78.2174 22.0273 78.2741C22.0273 78.3194 22.0786 78.3591 22.1414 78.3591C22.2156 78.3591 22.2555 78.3987 22.2555 78.4724C22.2555 78.5461 22.2955 78.5857 22.3697 78.5857C22.4324 78.5857 22.4838 78.6254 22.4838 78.6707C22.4838 78.7274 22.5408 78.7557 22.655 78.7557C22.7634 78.7557 22.8262 78.784 22.8262 78.835C22.8262 78.8803 22.9118 78.9313 23.0259 78.9483C23.1457 78.971 23.2256 79.022 23.2256 79.0673C23.2256 79.1126 23.277 79.1523 23.3398 79.1523C23.4025 79.1523 23.4539 79.192 23.4539 79.2373C23.4539 79.2826 23.4938 79.3223 23.5395 79.3223C23.5851 79.3223 23.6251 79.3619 23.6251 79.4073C23.6251 79.4526 23.705 79.5036 23.8248 79.5263C23.9389 79.5433 24.0245 79.5942 24.0245 79.6396C24.0245 79.6849 24.0645 79.7189 24.1101 79.7189C24.1615 79.7189 24.2129 79.7529 24.23 79.7982C24.2471 79.8435 24.3384 79.9002 24.4297 79.9172C24.521 79.9399 24.5952 79.9852 24.5952 80.0305C24.5952 80.0702 24.6865 80.1212 24.7949 80.1382C24.9033 80.1608 24.9947 80.2005 24.9947 80.2288C24.9947 80.2628 25.0346 80.2855 25.086 80.2855C25.1373 80.2855 25.1887 80.3365 25.2058 80.3988C25.2286 80.4781 25.2857 80.5121 25.3998 80.5121C25.5025 80.5121 25.5653 80.5405 25.5653 80.5914C25.5653 80.6368 25.6509 80.6878 25.765 80.7048C25.8849 80.7274 25.9648 80.7784 25.9648 80.8237C25.9648 80.8804 26.0275 80.9087 26.1645 80.9087C26.3014 80.9087 26.3642 80.9371 26.3642 80.9937C26.3642 81.039 26.4156 81.0787 26.4783 81.0787C26.5411 81.0787 26.5925 81.1184 26.5925 81.1637C26.5925 81.209 26.6724 81.26 26.7922 81.2827C26.9063 81.2997 26.9919 81.3507 26.9919 81.396C26.9919 81.447 27.0547 81.4753 27.1631 81.4753C27.2601 81.4753 27.3514 81.5093 27.3686 81.5546C27.3857 81.6 27.477 81.6566 27.5683 81.6736C27.6596 81.6963 27.7338 81.7473 27.7338 81.7926C27.7338 81.8436 27.7966 81.8719 27.9335 81.8719C28.0705 81.8719 28.1332 81.9003 28.1332 81.9569C28.1332 82.0136 28.1903 82.0419 28.3044 82.0419C28.4072 82.0419 28.4928 82.0759 28.5099 82.1269C28.527 82.1722 28.6297 82.2232 28.7381 82.2459C28.8466 82.2629 28.9322 82.3139 28.9322 82.3592C28.9322 82.4159 29.0063 82.4385 29.1947 82.4385C29.4058 82.4385 29.4629 82.4612 29.4857 82.5518C29.5085 82.6368 29.5656 82.6652 29.7082 82.6652C29.8452 82.6652 29.9023 82.6935 29.9023 82.7501C29.9023 82.8181 29.9822 82.8351 30.2732 82.8351C30.5528 82.8351 30.6441 82.8521 30.6441 82.9145C30.6441 82.9598 30.7297 83.0108 30.8495 83.0334C30.9637 83.0504 31.0949 83.1071 31.1406 83.1524C31.1862 83.1978 31.3232 83.2317 31.4487 83.2317C31.5971 83.2317 31.6713 83.2544 31.6713 83.3111C31.6713 83.3621 31.774 83.4017 31.9566 83.4244C32.1506 83.4527 32.2419 83.4867 32.2419 83.5434C32.2419 83.6057 32.3161 83.6284 32.5273 83.6284C32.7441 83.6284 32.8126 83.651 32.8126 83.7133C32.8126 83.7813 32.8868 83.7983 33.1264 83.7983C33.3547 83.7983 33.4403 83.821 33.4403 83.8777C33.4403 83.974 33.6172 84.025 33.9425 84.025C34.1194 84.025 34.1822 84.0476 34.1822 84.11C34.1822 84.1779 34.262 84.1949 34.5816 84.1949C34.9012 84.1949 34.9811 84.2119 34.9811 84.2799C34.9811 84.3479 35.061 84.3649 35.352 84.3649C35.6373 84.3649 35.7286 84.3876 35.7743 84.4612C35.8142 84.5406 35.9226 84.5632 36.2593 84.5802C36.5789 84.5972 36.693 84.6256 36.693 84.6822C36.693 84.7445 36.8014 84.7615 37.1781 84.7615C37.5775 84.7615 37.6688 84.7785 37.7145 84.8579C37.7601 84.9428 37.8743 84.9655 38.4278 84.9768C38.9528 84.9938 39.0898 85.0165 39.0898 85.0788C39.0898 85.1412 39.2495 85.1581 39.9686 85.1581C40.6762 85.1581 40.8702 85.1751 40.9387 85.2431C41.0129 85.3168 41.4123 85.3281 43.849 85.3281C46.3256 85.3281 46.6794 85.3168 46.6794 85.2431C46.6794 85.1695 46.8164 85.1581 47.5639 85.1581C48.2773 85.1581 48.4485 85.1412 48.4485 85.0788C48.4485 85.0222 48.5854 84.9938 49.0248 84.9768C49.4471 84.9598 49.6126 84.9315 49.6468 84.8749C49.6868 84.8125 49.8466 84.7842 50.246 84.7729C50.6626 84.7559 50.7881 84.7332 50.7881 84.6709C50.7881 84.6086 50.8851 84.5916 51.1876 84.5916C51.49 84.5916 51.587 84.5746 51.587 84.5122C51.587 84.4272 51.8267 84.3649 52.1634 84.3649C52.3232 84.3649 52.386 84.3423 52.386 84.2799C52.386 84.2119 52.4659 84.1949 52.7569 84.1949C53.0479 84.1949 53.1278 84.1779 53.1278 84.11C53.1278 84.0476 53.1906 84.025 53.3504 84.025C53.687 84.025 53.9267 83.9626 53.9267 83.8777C53.9267 83.821 54.0123 83.7983 54.2406 83.7983C54.4803 83.7983 54.5544 83.7813 54.5544 83.7133C54.5544 83.6454 54.6286 83.6284 54.8968 83.6284C55.1479 83.6284 55.2449 83.6057 55.2849 83.5377C55.3134 83.481 55.4447 83.4357 55.5987 83.4187C55.7756 83.3961 55.8669 83.3621 55.8669 83.3111C55.8669 83.2601 55.9354 83.2317 56.0667 83.2317C56.2036 83.2317 56.2664 83.2034 56.2664 83.1468C56.2664 83.0901 56.3577 83.0561 56.5517 83.0278C56.7343 83.0051 56.837 82.9654 56.837 82.9145C56.837 82.8578 56.9226 82.8351 57.1509 82.8351C57.3792 82.8351 57.4648 82.8125 57.4648 82.7558C57.4648 82.7048 57.5675 82.6652 57.7501 82.6425C57.9441 82.6142 58.0354 82.5802 58.0354 82.5235C58.0354 82.4669 58.0982 82.4385 58.2351 82.4385C58.3721 82.4385 58.4349 82.4102 58.4349 82.3535C58.4349 82.2969 58.4919 82.2685 58.6061 82.2685C58.6974 82.2685 58.7944 82.2289 58.8229 82.1779C58.8515 82.1212 58.9827 82.0759 59.1368 82.0589C59.3137 82.0362 59.405 82.0022 59.405 81.9513C59.405 81.9003 59.4735 81.8719 59.6047 81.8719C59.7417 81.8719 59.8044 81.8436 59.8044 81.7926C59.8044 81.7473 59.8843 81.6963 59.9756 81.6736C60.0726 81.651 60.1468 81.6 60.1468 81.5546C60.1468 81.5037 60.2096 81.4753 60.3466 81.4753C60.4778 81.4753 60.5463 81.447 60.5463 81.396C60.5463 81.3507 60.6319 81.2997 60.746 81.2827C60.8659 81.26 60.9457 81.209 60.9457 81.1637C60.9457 81.107 61.0085 81.0787 61.1455 81.0787C61.2824 81.0787 61.3452 81.0504 61.3452 80.9937C61.3452 80.9484 61.3852 80.9087 61.4308 80.9087C61.4822 80.9087 61.5335 80.8747 61.5506 80.8294C61.5678 80.7841 61.6591 80.7274 61.7504 80.7104C61.8417 80.6878 61.9159 80.6368 61.9159 80.5914C61.9159 80.5405 61.9786 80.5121 62.1156 80.5121C62.2525 80.5121 62.3153 80.4838 62.3153 80.4271C62.3153 80.3818 62.3952 80.3308 62.515 80.3081C62.6292 80.2912 62.7148 80.2402 62.7148 80.1948C62.7148 80.1495 62.7661 80.1155 62.8289 80.1155C62.8917 80.1155 62.943 80.0815 62.943 80.0362C62.943 79.9909 63.0229 79.9399 63.1142 79.9172C63.2112 79.8945 63.2854 79.8435 63.2854 79.7982C63.2854 79.7529 63.3368 79.7189 63.3996 79.7189C63.4623 79.7189 63.5137 79.6792 63.5137 79.6339C63.5137 79.5772 63.5707 79.5489 63.6792 79.5489C63.7933 79.5489 63.8504 79.5149 63.8732 79.4356C63.8903 79.3733 63.9417 79.3223 63.993 79.3223C64.0444 79.3223 64.0843 79.2826 64.0843 79.2373C64.0843 79.1806 64.1471 79.1523 64.2841 79.1523C64.4438 79.1523 64.4838 79.1296 64.4838 79.039C64.4838 78.9767 64.518 78.9257 64.5637 78.9257C64.6093 78.9257 64.655 78.886 64.6778 78.8407C64.6949 78.7897 64.7805 78.7557 64.8832 78.7557C64.9974 78.7557 65.0544 78.7274 65.0544 78.6707C65.0544 78.6254 65.1058 78.5857 65.1686 78.5857C65.2313 78.5857 65.3284 78.5347 65.3797 78.4724C65.4368 78.4101 65.511 78.3591 65.5509 78.3591C65.5909 78.3591 65.6251 78.3194 65.6251 78.2741C65.6251 78.2288 65.6765 78.1891 65.7392 78.1891C65.802 78.1891 65.8534 78.1494 65.8534 78.1041C65.8534 78.0588 65.8933 78.0191 65.939 78.0191C65.9846 78.0191 66.0246 77.9681 66.0246 77.9058C66.0246 77.8152 66.0645 77.7925 66.2243 77.7925C66.3841 77.7925 66.424 77.7698 66.424 77.6792C66.424 77.6169 66.464 77.5659 66.5096 77.5659C66.5553 77.5659 66.5952 77.5262 66.5952 77.4809C66.5952 77.4355 66.6466 77.3959 66.7093 77.3959C66.7721 77.3959 66.8235 77.3562 66.8235 77.3109C66.8235 77.2656 66.8634 77.2259 66.9091 77.2259C66.9604 77.2259 67.0118 77.1919 67.0289 77.1466C67.046 77.1013 67.1373 77.0446 67.2286 77.0276C67.3199 77.0049 67.3941 76.9539 67.3941 76.9086C67.3941 76.8633 67.4341 76.8293 67.4797 76.8293C67.5254 76.8293 67.5653 76.7896 67.5653 76.7443C67.5653 76.699 67.6167 76.6593 67.6794 76.6593C67.7536 76.6593 67.7936 76.6197 67.7936 76.546C67.7936 76.4723 67.8335 76.4327 67.9077 76.4327C67.9705 76.4327 68.0218 76.393 68.0218 76.3477C68.0218 76.3024 68.0618 76.2627 68.1074 76.2627C68.1531 76.2627 68.193 76.2117 68.193 76.1494C68.193 76.0871 68.233 76.0361 68.2786 76.0361C68.3243 76.0361 68.3642 75.9964 68.3642 75.9511C68.3642 75.9058 68.4156 75.8661 68.4784 75.8661C68.5411 75.8661 68.5925 75.8264 68.5925 75.7811C68.5925 75.7358 68.6324 75.6961 68.6781 75.6961C68.7237 75.6961 68.7637 75.6451 68.7637 75.5828C68.7637 75.5091 68.8036 75.4695 68.8778 75.4695C68.9406 75.4695 68.9919 75.4355 68.9919 75.3902C68.9919 75.3448 69.0718 75.2938 69.1631 75.2712C69.2602 75.2485 69.3343 75.1975 69.3343 75.1522C69.3343 75.1069 69.3686 75.0729 69.4142 75.0729C69.4542 75.0729 69.5055 75.0219 69.5226 74.9596C69.5398 74.8972 69.5911 74.8462 69.6425 74.8462C69.6938 74.8462 69.7338 74.8066 69.7338 74.7612C69.7338 74.7159 69.768 74.6763 69.8137 74.6763C69.8536 74.6763 69.905 74.6253 69.9221 74.5629C69.9392 74.5006 69.9906 74.4496 70.0419 74.4496C70.0933 74.4496 70.1332 74.41 70.1332 74.3646C70.1332 74.3193 70.1732 74.2796 70.2188 74.2796C70.2645 74.2796 70.3044 74.24 70.3044 74.1947C70.3044 74.1493 70.3387 74.1097 70.3843 74.1097C70.43 74.1097 70.4813 74.0303 70.5042 73.9397C70.527 73.8434 70.5784 73.7697 70.6297 73.7697C70.6754 73.7697 70.7267 73.7187 70.7438 73.6564C70.761 73.5941 70.8123 73.5431 70.8523 73.5431C70.8979 73.5431 70.9322 73.4921 70.9322 73.4298C70.9322 73.3674 70.9721 73.3164 71.0178 73.3164C71.0634 73.3164 71.1034 73.2768 71.1034 73.2315C71.1034 73.1861 71.1547 73.1465 71.2175 73.1465C71.2917 73.1465 71.3316 73.1068 71.3316 73.0331C71.3316 72.9708 71.3716 72.9198 71.4172 72.9198C71.4629 72.9198 71.5028 72.8802 71.5028 72.8348C71.5028 72.7895 71.537 72.7499 71.5827 72.7499C71.6227 72.7499 71.674 72.6989 71.6911 72.6365C71.7082 72.5742 71.7596 72.5232 71.811 72.5232C71.8737 72.5232 71.9023 72.4722 71.9023 72.3532C71.9023 72.2456 71.9308 72.1833 71.9822 72.1833C72.0221 72.1833 72.0735 72.1323 72.0906 72.0699C72.1077 72.0076 72.1591 71.9566 72.2104 71.9566C72.2618 71.9566 72.3017 71.917 72.3017 71.8716C72.3017 71.8263 72.3417 71.7867 72.3873 71.7867C72.433 71.7867 72.4729 71.7357 72.4729 71.6733C72.4729 71.611 72.5072 71.56 72.5528 71.56C72.5985 71.56 72.6498 71.4864 72.6726 71.39C72.6955 71.2994 72.7468 71.2201 72.7925 71.2201C72.8381 71.2201 72.8724 71.1691 72.8724 71.1067C72.8724 71.0444 72.9123 70.9934 72.958 70.9934C73.0036 70.9934 73.0436 70.9538 73.0436 70.9084C73.0436 70.8631 73.0949 70.8235 73.1577 70.8235C73.2319 70.8235 73.2718 70.7838 73.2718 70.7101C73.2718 70.6478 73.3061 70.5968 73.3517 70.5968C73.3974 70.5968 73.4487 70.5232 73.4716 70.4325C73.4887 70.3419 73.5457 70.2512 73.5914 70.2342C73.6371 70.2172 73.6713 70.1662 73.6713 70.1152C73.6713 70.0699 73.7112 70.0302 73.7569 70.0302C73.8025 70.0302 73.8425 69.9906 73.8425 69.9452C73.8425 69.8942 73.8767 69.8433 73.9224 69.8263C73.968 69.8093 74.0251 69.7186 74.0422 69.628C74.065 69.5373 74.1164 69.4636 74.162 69.4636C74.2077 69.4636 74.2419 69.4126 74.2419 69.3503C74.2419 69.288 74.2762 69.237 74.3218 69.237C74.3675 69.237 74.4188 69.1633 74.4417 69.0727C74.4588 68.982 74.5159 68.8914 74.5615 68.8744C74.6072 68.8574 74.6414 68.8064 74.6414 68.7554C74.6414 68.7101 74.6813 68.6704 74.727 68.6704C74.7841 68.6704 74.8126 68.6138 74.8126 68.4948C74.8126 68.3701 74.8411 68.3135 74.9267 68.2908C74.9895 68.2738 75.0409 68.2228 75.0409 68.1831C75.0409 68.1378 75.0808 68.1038 75.1265 68.1038C75.1835 68.1038 75.2121 68.0415 75.2121 67.9055C75.2121 67.7695 75.2406 67.7072 75.2977 67.7072C75.3433 67.7072 75.3947 67.6279 75.4175 67.5089C75.4346 67.3956 75.486 67.3106 75.5316 67.3106C75.583 67.3106 75.6115 67.2483 75.6115 67.1406C75.6115 67.0273 75.64 66.9706 75.6971 66.9706C75.7428 66.9706 75.7827 66.9197 75.7827 66.8573C75.7827 66.795 75.8226 66.744 75.8683 66.744C75.914 66.744 75.9653 66.6647 75.9881 66.5457C76.0053 66.4324 76.0566 66.3474 76.1023 66.3474C76.1479 66.3474 76.1822 66.2964 76.1822 66.2341C76.1822 66.1718 76.2335 66.0754 76.2963 66.0244C76.3591 65.9678 76.4104 65.8545 76.4104 65.7695C76.4104 65.6675 76.4389 65.6108 76.496 65.6108C76.5531 65.6108 76.5816 65.5485 76.5816 65.4125C76.5816 65.2822 76.6101 65.2142 76.6615 65.2142C76.7072 65.2142 76.7585 65.1292 76.7756 65.0159C76.7985 64.8969 76.8498 64.8176 76.8955 64.8176C76.9525 64.8176 76.9811 64.7553 76.9811 64.6193C76.9811 64.4833 77.0096 64.421 77.0667 64.421C77.1237 64.421 77.1523 64.3587 77.1523 64.2227C77.1523 64.0924 77.1808 64.0244 77.2322 64.0244C77.3178 64.0244 77.3805 63.8544 77.3805 63.6108C77.3805 63.5145 77.4091 63.4578 77.4661 63.4578C77.5232 63.4578 77.5517 63.3955 77.5517 63.2595C77.5517 63.1235 77.5803 63.0612 77.6373 63.0612C77.683 63.0612 77.7343 62.9819 77.7572 62.8629C77.7743 62.7496 77.8256 62.6646 77.8713 62.6646C77.9284 62.6646 77.9512 62.5853 77.9512 62.3813C77.9512 62.166 77.974 62.098 78.0368 62.098C78.0938 62.098 78.1224 62.0413 78.1224 61.9393C78.1224 61.7014 78.1852 61.5314 78.2707 61.5314C78.3278 61.5314 78.3506 61.4577 78.3506 61.3048C78.3506 61.1405 78.3735 61.0781 78.4362 61.0781C78.499 61.0781 78.5218 61.0101 78.5218 60.7948C78.5218 60.5909 78.5447 60.5115 78.6017 60.5115C78.6873 60.5115 78.7501 60.3416 78.7501 60.0979C78.7501 60.0016 78.7786 59.9449 78.8357 59.9449C78.8985 59.9449 78.9213 59.8713 78.9213 59.639C78.9213 59.4407 78.9498 59.299 79.0069 59.2424C79.0525 59.1971 79.0925 59.1121 79.0925 59.0497C79.0925 58.8174 79.1667 58.5851 79.2409 58.5851C79.3036 58.5851 79.3207 58.4888 79.3207 58.1885C79.3207 57.8882 79.3379 57.7919 79.4006 57.7919C79.4577 57.7919 79.4862 57.6786 79.5034 57.3613C79.5205 57.027 79.5433 56.9194 79.6232 56.8797C79.7031 56.8344 79.7202 56.7437 79.7202 56.4321C79.7202 56.1148 79.7373 56.0355 79.8058 56.0355C79.8743 56.0355 79.8914 55.9335 79.8914 55.4689C79.8914 55.0326 79.9085 54.9023 79.9713 54.9023C80.0455 54.9023 80.1197 54.3584 80.1197 53.7861C80.1197 53.6162 80.1425 53.5425 80.1996 53.5425C80.268 53.5425 80.2851 53.3442 80.3023 52.398C80.3137 51.5481 80.3365 51.2535 80.3936 51.2308C80.4963 51.1968 80.4963 47.1627 80.3936 47.1287C80.3422 47.1117 80.3137 46.8228 80.3023 46.0749C80.2851 45.3043 80.2623 45.0437 80.2053 45.0437C80.1596 45.0437 80.1254 44.8737 80.1025 44.4714C80.0854 44.0861 80.0455 43.8822 79.9998 43.8482C79.9485 43.8198 79.9142 43.6215 79.9028 43.2362C79.8857 42.8226 79.8572 42.664 79.8058 42.664C79.7544 42.664 79.7259 42.528 79.7088 42.2107C79.6974 41.8934 79.6631 41.7348 79.6118 41.7008C79.5604 41.6725 79.5205 41.5252 79.5034 41.3098C79.4862 41.0662 79.4577 40.9642 79.4006 40.9642C79.3379 40.9642 79.3207 40.8679 79.3207 40.5676C79.3207 40.2673 79.3036 40.171 79.2409 40.171C79.1667 40.171 79.0925 39.9387 79.0925 39.7064C79.0925 39.6441 79.0525 39.5591 79.0069 39.5138C78.9612 39.4628 78.9213 39.3268 78.9213 39.2021C78.9213 39.0435 78.8985 38.9812 78.8357 38.9812C78.7729 38.9812 78.7501 38.9132 78.7501 38.6979C78.7501 38.4939 78.7273 38.4146 78.6702 38.4146C78.5789 38.4146 78.5218 38.2446 78.5218 37.9726C78.5218 37.848 78.4933 37.7913 78.4362 37.7913C78.3735 37.7913 78.3506 37.7233 78.3506 37.5364C78.3506 37.3664 78.3221 37.2701 78.2593 37.2361C78.2023 37.2077 78.1566 37.0774 78.1395 36.9244C78.1167 36.7488 78.0824 36.6581 78.0311 36.6581C77.9797 36.6581 77.9512 36.5902 77.9512 36.4598C77.9512 36.3295 77.9227 36.2615 77.8713 36.2615C77.8199 36.2615 77.78 36.1596 77.7572 35.9782C77.7286 35.7856 77.6944 35.695 77.6373 35.695C77.5803 35.695 77.5517 35.6326 77.5517 35.4966C77.5517 35.3607 77.5232 35.2983 77.4661 35.2983C77.4091 35.2983 77.3805 35.2417 77.3805 35.1284C77.3805 35.032 77.3463 34.9414 77.3006 34.9244C77.255 34.9074 77.1979 34.8167 77.1808 34.7261C77.158 34.6354 77.1066 34.5618 77.061 34.5618C77.0096 34.5618 76.9811 34.4994 76.9811 34.3635C76.9811 34.2332 76.9525 34.1652 76.9012 34.1652C76.8555 34.1652 76.8042 34.0802 76.787 33.9669C76.7642 33.8479 76.7129 33.7685 76.6672 33.7685C76.6101 33.7685 76.5816 33.7062 76.5816 33.5702C76.5816 33.4343 76.5531 33.3719 76.496 33.3719C76.4389 33.3719 76.4104 33.3096 76.4104 33.1736C76.4104 33.0376 76.3819 32.9753 76.3248 32.9753C76.2792 32.9753 76.2278 32.896 76.205 32.777C76.1879 32.6637 76.1365 32.5787 76.0909 32.5787C76.0395 32.5787 76.011 32.5164 76.011 32.4087C76.011 32.3124 75.9767 32.2218 75.9311 32.2048C75.8854 32.1878 75.8284 32.0971 75.8112 32.0065C75.7884 31.9158 75.7428 31.8421 75.6971 31.8421C75.6572 31.8421 75.6058 31.7572 75.5887 31.6495C75.5659 31.5419 75.5145 31.4399 75.4688 31.4229C75.4232 31.4059 75.3832 31.3549 75.3832 31.3039C75.3832 31.2586 75.3433 31.2189 75.2977 31.2189C75.2406 31.2189 75.2121 31.1566 75.2121 31.0206C75.2121 30.8846 75.1835 30.8223 75.1265 30.8223C75.0808 30.8223 75.0409 30.7826 75.0409 30.7373C75.0409 30.692 75.0009 30.6523 74.9553 30.6523C74.9096 30.6523 74.8582 30.573 74.8354 30.454C74.8183 30.3464 74.7669 30.2557 74.727 30.2557C74.6813 30.2557 74.6357 30.182 74.6129 30.0914C74.5957 30.0007 74.5387 29.9101 74.493 29.8931C74.4474 29.8761 74.4131 29.8251 74.4131 29.7741C74.4131 29.7288 74.3732 29.6891 74.3275 29.6891C74.2705 29.6891 74.2419 29.6268 74.2419 29.4908C74.2419 29.3322 74.2191 29.2925 74.1278 29.2925C74.065 29.2925 74.0137 29.2528 74.0137 29.2075C74.0137 29.1622 73.9737 29.1225 73.9281 29.1225C73.871 29.1225 73.8425 29.0602 73.8425 28.9242C73.8425 28.7656 73.8197 28.7259 73.7284 28.7259C73.6656 28.7259 73.6142 28.6919 73.6142 28.6466C73.6142 28.6013 73.5743 28.5559 73.5286 28.5333C73.483 28.5163 73.443 28.4653 73.443 28.4143C73.443 28.369 73.4088 28.3293 73.3631 28.3293C73.3175 28.3293 73.2661 28.2443 73.249 28.131C73.2262 28.012 73.1748 27.9327 73.1292 27.9327C73.0835 27.9327 73.0436 27.893 73.0436 27.8477C73.0436 27.8024 73.0036 27.7627 72.958 27.7627C72.9123 27.7627 72.8724 27.7117 72.8724 27.6494C72.8724 27.5871 72.8324 27.5361 72.7868 27.5361C72.7411 27.5361 72.7012 27.4964 72.7012 27.4454C72.7012 27.3944 72.6498 27.3434 72.5871 27.3264C72.5072 27.3038 72.4729 27.2471 72.4729 27.1338C72.4729 27.0261 72.4444 26.9695 72.3873 26.9695C72.3417 26.9695 72.3017 26.9355 72.3017 26.8902C72.3017 26.8505 72.2504 26.7995 72.1876 26.7825C72.1248 26.7655 72.0735 26.7145 72.0735 26.6635C72.0735 26.6125 72.0335 26.5729 71.9879 26.5729C71.9422 26.5729 71.9023 26.5332 71.9023 26.4879C71.9023 26.4369 71.8623 26.3859 71.8167 26.3689C71.771 26.3462 71.7311 26.3009 71.7311 26.2556C71.7311 26.2103 71.6797 26.1763 71.6169 26.1763C71.5256 26.1763 71.5028 26.1366 71.5028 26.0063C71.5028 25.8873 71.4743 25.8363 71.4115 25.8363C71.3601 25.8363 71.3088 25.7853 71.2917 25.723C71.2746 25.6607 71.2232 25.6097 71.1833 25.6097C71.1376 25.6097 71.1034 25.57 71.1034 25.5247C71.1034 25.4794 71.0691 25.4397 71.0235 25.4397C70.9835 25.4397 70.9322 25.3887 70.915 25.3264C70.8979 25.264 70.8466 25.2131 70.7952 25.2131C70.7438 25.2131 70.7039 25.1734 70.7039 25.1281C70.7039 25.0827 70.664 25.0431 70.6183 25.0431C70.5727 25.0431 70.5327 24.9921 70.5327 24.9298C70.5327 24.8674 70.4928 24.8164 70.4471 24.8164C70.4015 24.8164 70.3615 24.7768 70.3615 24.7315C70.3615 24.6861 70.3101 24.6465 70.2474 24.6465C70.1732 24.6465 70.1332 24.6068 70.1332 24.5331C70.1332 24.4708 70.0933 24.4198 70.0476 24.4198C70.002 24.4198 69.9621 24.3802 69.9621 24.3348C69.9621 24.2895 69.9107 24.2499 69.8479 24.2499C69.7737 24.2499 69.7338 24.2102 69.7338 24.1365C69.7338 24.0742 69.6938 24.0232 69.6482 24.0232C69.6025 24.0232 69.5626 23.9836 69.5626 23.9382C69.5626 23.8929 69.5226 23.8532 69.477 23.8532C69.4313 23.8532 69.3914 23.8136 69.3914 23.7683C69.3914 23.7229 69.34 23.6833 69.2773 23.6833C69.2031 23.6833 69.1631 23.6436 69.1631 23.57C69.1631 23.5076 69.1232 23.4566 69.0775 23.4566C69.0319 23.4566 68.9919 23.417 68.9919 23.3716C68.9919 23.3263 68.9406 23.2867 68.8778 23.2867C68.815 23.2867 68.7637 23.247 68.7637 23.2017C68.7637 23.1563 68.7237 23.1167 68.6781 23.1167C68.6324 23.1167 68.5925 23.0657 68.5925 23.0034C68.5925 22.9297 68.5525 22.89 68.4784 22.89C68.4156 22.89 68.3642 22.8504 68.3642 22.8051C68.3642 22.7597 68.33 22.7201 68.2843 22.7201C68.2444 22.7201 68.193 22.6691 68.1759 22.6068C68.1588 22.5444 68.1074 22.4934 68.0561 22.4934C68.0047 22.4934 67.9648 22.4594 67.9648 22.4141C67.9648 22.3688 67.8906 22.3178 67.7993 22.2951C67.708 22.2781 67.6167 22.2215 67.5996 22.1761C67.5824 22.1308 67.5311 22.0968 67.4797 22.0968C67.4341 22.0968 67.3941 22.0572 67.3941 22.0118C67.3941 21.9665 67.3542 21.9268 67.3085 21.9268C67.2629 21.9268 67.2229 21.8872 67.2229 21.8419C67.2229 21.7965 67.183 21.7569 67.1316 21.7569C67.0803 21.7569 67.0289 21.7059 67.0118 21.6435C66.989 21.5642 66.9319 21.5302 66.8235 21.5302C66.715 21.5302 66.658 21.4962 66.6351 21.4169C66.618 21.3546 66.5667 21.3036 66.5153 21.3036C66.464 21.3036 66.424 21.2639 66.424 21.2186C66.424 21.1733 66.3841 21.1336 66.3384 21.1336C66.2928 21.1336 66.2528 21.0996 66.2528 21.0543C66.2528 21.009 66.1672 20.958 66.0531 20.941C65.9332 20.9183 65.8534 20.8673 65.8534 20.822C65.8534 20.7767 65.802 20.737 65.7392 20.737C65.6765 20.737 65.6251 20.6973 65.6251 20.652C65.6251 20.6067 65.5851 20.567 65.5395 20.567C65.4938 20.567 65.4539 20.5274 65.4539 20.482C65.4539 20.4367 65.374 20.3857 65.2542 20.3631C65.14 20.3461 65.0544 20.2951 65.0544 20.2497C65.0544 20.2044 65.0145 20.1704 64.9688 20.1704C64.9232 20.1704 64.8832 20.1364 64.8832 20.0911C64.8832 20.0458 64.7976 19.9948 64.6835 19.9778C64.5637 19.9551 64.4838 19.9041 64.4838 19.8588C64.4838 19.8135 64.4324 19.7738 64.3697 19.7738C64.3069 19.7738 64.2555 19.7341 64.2555 19.6888C64.2555 19.6435 64.2156 19.6038 64.1699 19.6038C64.1243 19.6038 64.0843 19.5698 64.0843 19.5245C64.0843 19.4792 63.9987 19.4282 63.8846 19.4112C63.7648 19.3885 63.6849 19.3375 63.6849 19.2922C63.6849 19.2355 63.6278 19.2072 63.5137 19.2072C63.3995 19.2072 63.3425 19.1789 63.3425 19.1222C63.3425 19.0712 63.2968 19.0146 63.2455 18.9976C63.1884 18.9749 63.1199 18.9296 63.0971 18.8843C63.0743 18.8446 62.9773 18.8106 62.886 18.8106C62.7718 18.8106 62.7148 18.7823 62.7148 18.7256C62.7148 18.6803 62.6634 18.6406 62.6006 18.6406C62.5379 18.6406 62.4409 18.5896 62.3895 18.5273C62.3324 18.465 62.2582 18.414 62.2183 18.414C62.1784 18.414 62.1441 18.3743 62.1441 18.329C62.1441 18.2723 62.0813 18.244 61.9444 18.244C61.8074 18.244 61.7447 18.2157 61.7447 18.159C61.7447 18.1137 61.6648 18.0627 61.5449 18.04C61.4308 18.023 61.3452 17.9721 61.3452 17.9267C61.3452 17.8757 61.2767 17.8474 61.1455 17.8474C61.0085 17.8474 60.9457 17.8191 60.9457 17.7681C60.9457 17.7228 60.8716 17.6718 60.7803 17.6491C60.6889 17.6321 60.5976 17.5754 60.5805 17.5301C60.5634 17.4848 60.4721 17.4508 60.3751 17.4508C60.261 17.4508 60.2039 17.4225 60.2039 17.3658C60.2039 17.3205 60.1525 17.2808 60.0898 17.2808C60.027 17.2808 59.9756 17.2411 59.9756 17.1958C59.9756 17.1505 59.8957 17.0995 59.7759 17.0768C59.6675 17.0598 59.5762 17.0089 59.5762 16.9692C59.5762 16.9295 59.4678 16.8842 59.308 16.8672C59.1596 16.8502 59.0284 16.8105 59.0169 16.7766C59.0055 16.7426 58.9085 16.7029 58.8001 16.6802C58.6917 16.6632 58.6061 16.6122 58.6061 16.5669C58.6061 16.5159 58.5376 16.4876 58.4063 16.4876C58.2751 16.4876 58.2066 16.4593 58.2066 16.4083C58.2066 16.3573 58.1039 16.3176 57.9213 16.295C57.7273 16.2666 57.636 16.2326 57.636 16.176C57.636 16.1193 57.5732 16.091 57.4362 16.091C57.305 16.091 57.2365 16.0627 57.2365 16.0117C57.2365 15.9607 57.1452 15.9267 56.9683 15.904C56.8142 15.887 56.683 15.8417 56.6544 15.785C56.6259 15.734 56.5289 15.6944 56.4376 15.6944C56.3235 15.6944 56.2664 15.666 56.2664 15.6094C56.2664 15.5471 56.1979 15.5244 55.9811 15.5244C55.7756 15.5244 55.6957 15.5017 55.6957 15.4451C55.6957 15.3941 55.6044 15.3601 55.4275 15.3374C55.2735 15.3204 55.1422 15.2751 55.1137 15.2184C55.0794 15.1561 54.9824 15.1278 54.7827 15.1278C54.5773 15.1278 54.4974 15.1051 54.4974 15.0485C54.4974 14.9975 54.4061 14.9635 54.2349 14.9408C54.0865 14.9295 53.9496 14.8785 53.921 14.8388C53.8982 14.7935 53.727 14.7538 53.5044 14.7425C53.2534 14.7255 53.1278 14.6972 53.1278 14.6462C53.1278 14.6009 53.008 14.5669 52.7797 14.5499C52.58 14.5329 52.4145 14.4932 52.386 14.4535C52.3574 14.4082 52.1805 14.3629 51.9351 14.3459C51.6441 14.3289 51.53 14.2949 51.53 14.2439C51.53 14.1816 51.393 14.1646 50.8737 14.1646C50.3259 14.1646 50.2175 14.1476 50.2175 14.0796C50.2175 14.0173 50.1433 13.9946 49.9207 13.9946C49.4014 13.9946 49.0191 13.9266 49.0191 13.8473C49.0191 13.785 48.8936 13.768 48.4485 13.768C48.0033 13.768 47.8778 13.751 47.8778 13.6886C47.8778 13.6263 47.6495 13.6093 46.7308 13.5867C45.8292 13.564 45.5724 13.5413 45.5324 13.479C45.4925 13.4167 45.19 13.3997 43.8718 13.394C42.9816 13.3883 42.1656 13.394 42.0572 13.411ZM48.6197 25.5247C48.6197 25.57 48.671 25.6097 48.7338 25.6097C48.8479 25.6097 48.8479 25.6493 48.8479 39.1568V52.7039L48.7224 52.8399C48.6368 52.9249 48.5284 52.9759 48.4085 52.9759C48.2773 52.9759 48.2202 53.0042 48.2202 53.0609C48.2202 53.1289 48.1403 53.1459 47.8493 53.1459C47.5754 53.1459 47.4784 53.1629 47.4784 53.2252C47.4784 53.3102 47.2387 53.3725 46.902 53.3725C46.7422 53.3725 46.6794 53.3952 46.6794 53.4575C46.6794 53.5255 46.5995 53.5425 46.3085 53.5425C46.0289 53.5425 45.9376 53.5595 45.9376 53.6218C45.9376 53.6785 45.8235 53.7125 45.5381 53.7408C45.2528 53.7691 45.1387 53.8031 45.1387 53.8598C45.1387 53.9221 45.0417 53.9391 44.7392 53.9391C44.4197 53.9391 44.3398 53.9561 44.3398 54.0241C44.3398 54.0864 44.2713 54.1091 44.0544 54.1091C43.849 54.1091 43.7691 54.1317 43.7691 54.1884C43.7691 54.2734 43.5294 54.3357 43.1928 54.3357C43.033 54.3357 42.9702 54.3584 42.9702 54.4207C42.9702 54.4774 42.9074 54.5057 42.7705 54.5057C42.6335 54.5057 42.5707 54.4774 42.5707 54.4207C42.5707 54.3754 42.5308 54.3357 42.4851 54.3357C42.411 54.3357 42.3995 52.7889 42.3995 40.7659C42.3995 28.7429 42.411 27.1961 42.4851 27.1961C42.5308 27.1961 42.5707 27.1451 42.5707 27.0828C42.5707 26.9921 42.6107 26.9695 42.7705 26.9695C42.8903 26.9695 42.9873 26.9355 43.0044 26.8902C43.0216 26.8392 43.1699 26.7938 43.3868 26.7712C43.5808 26.7485 43.7577 26.7032 43.7805 26.6692C43.7976 26.6352 43.9745 26.5955 44.1629 26.5842C44.3911 26.5672 44.511 26.5332 44.511 26.4879C44.511 26.4426 44.6479 26.4029 44.9047 26.3802C45.1216 26.3576 45.3099 26.3122 45.3213 26.2782C45.3327 26.2442 45.5438 26.2046 45.812 26.1876C46.1373 26.1706 46.28 26.1423 46.28 26.0913C46.28 26.0459 46.4055 26.0119 46.6566 25.9949C46.8906 25.9836 47.0504 25.944 47.0789 25.893C47.1074 25.8476 47.2615 25.808 47.4726 25.791C47.718 25.774 47.8207 25.7457 47.8207 25.689C47.8207 25.6323 47.9063 25.6097 48.1346 25.6097C48.3743 25.6097 48.4485 25.5927 48.4485 25.5247C48.4485 25.4794 48.4884 25.4397 48.5341 25.4397C48.5797 25.4397 48.6197 25.4794 48.6197 25.5247ZM54.1892 27.7627C54.2748 27.7627 54.3262 27.7967 54.3262 27.8477C54.3262 27.9044 54.389 27.9327 54.5259 27.9327C54.6629 27.9327 54.7256 27.961 54.7256 28.0177C54.7256 28.063 54.7656 28.1027 54.8112 28.1027C54.8569 28.1027 54.8968 28.1537 54.8968 28.216C54.8968 28.2783 54.9368 28.3293 54.9824 28.3293C55.0281 28.3293 55.068 28.3633 55.068 28.4086C55.068 28.4483 55.1194 28.4993 55.1822 28.5163C55.2678 28.5389 55.2963 28.5956 55.2963 28.7202C55.2963 28.8392 55.3248 28.8959 55.3819 28.8959C55.4561 28.8959 55.4675 29.1395 55.4675 30.7656C55.4675 32.3917 55.4561 32.6354 55.3819 32.6354C55.3362 32.6354 55.2963 32.675 55.2963 32.7204C55.2963 32.7827 55.2278 32.8053 55.011 32.8053C54.7941 32.8053 54.7256 32.828 54.7256 32.8903C54.7256 32.9583 54.6457 32.9753 54.3262 32.9753C54.0237 32.9753 53.9267 32.9923 53.9267 33.0546C53.9267 33.1283 53.6928 33.202 53.4588 33.202C53.396 33.202 53.3104 33.2416 53.2648 33.2869C53.2077 33.3436 53.065 33.3719 52.8653 33.3719C52.6428 33.3719 52.5572 33.3946 52.5572 33.4513C52.5572 33.5306 51.9237 33.6326 51.8153 33.5702C51.7811 33.5476 51.7582 32.7204 51.7582 31.3265C51.7582 29.4341 51.7697 29.1169 51.8438 29.0885C51.8895 29.0715 51.9409 28.9695 51.9637 28.8619C51.9808 28.7542 52.0322 28.6693 52.0778 28.6693C52.1292 28.6693 52.1577 28.6069 52.1577 28.4993C52.1577 28.386 52.1862 28.3293 52.2433 28.3293C52.2889 28.3293 52.3289 28.2896 52.3289 28.2386C52.3289 28.1876 52.3803 28.1367 52.443 28.1197C52.5058 28.1027 52.5572 28.0517 52.5572 28.012C52.5572 27.961 52.6199 27.9327 52.7284 27.9327C52.8425 27.9327 52.8995 27.9044 52.8995 27.8477C52.8995 27.757 53.3561 27.706 53.8069 27.74C53.9438 27.7514 54.115 27.7627 54.1892 27.7627ZM35.7229 28.8109C35.7229 28.8562 35.7743 28.8959 35.837 28.8959C35.9512 28.8959 35.9512 28.9355 35.9512 49.9447C35.9512 67.8659 35.9398 70.9934 35.8713 70.9934C35.8256 70.9934 35.7743 71.0784 35.7572 71.1917C35.7172 71.3844 35.7115 71.39 35.4376 71.39C35.2322 71.39 35.1523 71.4127 35.1523 71.4694C35.1523 71.543 34.7756 71.6167 34.3705 71.6167C34.2392 71.6167 34.1822 71.645 34.1822 71.7017C34.1822 71.7697 34.108 71.7867 33.8683 71.7867C33.6286 71.7867 33.5544 71.8037 33.5544 71.8716C33.5544 71.9396 33.4803 71.9566 33.212 71.9566C32.9553 71.9566 32.8639 71.9793 32.824 72.0529C32.7841 72.1209 32.6699 72.1549 32.3903 72.1719C32.1164 72.1889 32.0137 72.2173 32.0137 72.2739C32.0137 72.3306 31.9338 72.3532 31.7283 72.3532C31.5172 72.3532 31.443 72.3759 31.443 72.4326C31.443 72.4949 31.3346 72.5289 31.0436 72.5572C30.7639 72.5855 30.6441 72.6195 30.6441 72.6705C30.6441 72.7329 30.5471 72.7499 30.2447 72.7499C29.9251 72.7499 29.8452 72.7669 29.8452 72.8348C29.8452 72.8915 29.7881 72.9198 29.674 72.9198C29.5599 72.9198 29.5028 72.8915 29.5028 72.8348C29.5028 72.7895 29.4514 72.7499 29.3887 72.7499C29.2745 72.7499 29.2745 72.7102 29.2745 51.7407C29.2745 40.188 29.2917 30.6806 29.3088 30.6126C29.3316 30.5333 29.4058 30.4767 29.5085 30.454C29.5998 30.4313 29.674 30.3803 29.674 30.335C29.674 30.2727 29.7653 30.2557 30.0735 30.2557C30.3702 30.2557 30.4729 30.2387 30.4729 30.1764C30.4729 30.1254 30.587 30.0914 30.8495 30.0687C31.0607 30.0517 31.249 30.0121 31.2718 29.9724C31.2947 29.9327 31.4316 29.8874 31.58 29.8761C31.7512 29.8534 31.8425 29.8194 31.8425 29.7684C31.8425 29.7061 31.9395 29.6891 32.2134 29.6891C32.4816 29.6891 32.5957 29.6664 32.6186 29.6098C32.6357 29.5645 32.7726 29.5191 32.9324 29.4965C33.1207 29.4681 33.212 29.4341 33.212 29.3775C33.212 29.3095 33.2976 29.2925 33.6115 29.2925C33.9311 29.2925 34.011 29.2755 34.011 29.2075C34.011 29.1452 34.0737 29.1225 34.2563 29.1225C34.5759 29.1225 34.7528 29.0715 34.7528 28.9752C34.7528 28.9129 34.8498 28.8959 35.1523 28.8959C35.4718 28.8959 35.5517 28.8789 35.5517 28.8109C35.5517 28.7656 35.5917 28.7259 35.6373 28.7259C35.683 28.7259 35.7229 28.7656 35.7229 28.8109ZM53.9267 36.1766C53.9267 36.2389 53.9952 36.2615 54.212 36.2615C54.4574 36.2615 54.4974 36.2785 54.4974 36.3749C54.4974 36.4485 54.5373 36.4882 54.6115 36.4882C54.6743 36.4882 54.7256 36.5278 54.7256 36.5732C54.7256 36.6185 54.7656 36.6581 54.8112 36.6581C54.8569 36.6581 54.8968 36.6978 54.8968 36.7431C54.8968 36.7885 54.9368 36.8281 54.9824 36.8281C55.0281 36.8281 55.068 36.8791 55.068 36.9414C55.068 37.0151 55.108 37.0548 55.1822 37.0548C55.2735 37.0548 55.2963 37.0944 55.2963 37.2531C55.2963 37.389 55.3248 37.4514 55.3819 37.4514C55.4504 37.4514 55.4675 37.542 55.4675 37.933C55.4675 38.3239 55.4504 38.4146 55.3819 38.4146C55.3248 38.4146 55.2963 38.4712 55.2963 38.5902C55.2963 38.7149 55.2678 38.7715 55.1822 38.7942C55.1194 38.8112 55.068 38.8622 55.068 38.9018C55.068 38.9472 55.0281 38.9812 54.9824 38.9812C54.9368 38.9812 54.8968 39.0322 54.8968 39.0945C54.8968 39.1568 54.8569 39.2078 54.8112 39.2078C54.7656 39.2078 54.7256 39.2475 54.7256 39.2928C54.7256 39.3381 54.6743 39.3778 54.6115 39.3778C54.5487 39.3778 54.4974 39.4118 54.4974 39.4571C54.4974 39.5308 54.2634 39.6044 54.0123 39.6044C53.9381 39.6044 53.8697 39.6327 53.8582 39.6724C53.8468 39.7064 53.6813 39.7461 53.4816 39.7631C53.1963 39.7857 53.1278 39.7744 53.1278 39.7007C53.1278 39.6441 53.0422 39.6101 52.8425 39.5817C52.6485 39.5534 52.5572 39.5194 52.5572 39.4628C52.5572 39.4174 52.5058 39.3778 52.443 39.3778C52.3803 39.3778 52.3289 39.3381 52.3289 39.2928C52.3289 39.2475 52.2889 39.2078 52.2433 39.2078C52.1862 39.2078 52.1577 39.1455 52.1577 39.0095C52.1577 38.8792 52.1292 38.8112 52.0778 38.8112C52.0322 38.8112 51.9808 38.7262 51.9637 38.6129C51.9351 38.4882 51.8895 38.4146 51.8324 38.4146C51.7582 38.4146 51.7468 38.3409 51.7697 37.95C51.7811 37.6553 51.8153 37.4797 51.8553 37.4684C51.8952 37.4514 51.9409 37.3551 51.9637 37.2474C51.9808 37.1398 52.0322 37.0548 52.0778 37.0548C52.1292 37.0548 52.1577 36.9868 52.1577 36.8565C52.1577 36.6978 52.1805 36.6581 52.2718 36.6581C52.3346 36.6581 52.386 36.6242 52.386 36.5788C52.386 36.5335 52.4601 36.4825 52.5514 36.4598C52.6428 36.4428 52.7341 36.3862 52.7512 36.3409C52.774 36.2899 52.871 36.2615 53.0707 36.2615C53.2876 36.2615 53.3561 36.2389 53.3561 36.1766C53.3561 36.1142 53.4245 36.0916 53.6414 36.0916C53.8582 36.0916 53.9267 36.1142 53.9267 36.1766ZM54.1436 42.494C54.4061 42.494 54.4974 42.5167 54.4974 42.5733C54.4974 42.613 54.5487 42.664 54.6115 42.681C54.6743 42.698 54.7256 42.749 54.7256 42.8C54.7256 42.851 54.7656 42.8906 54.8112 42.8906C54.8569 42.8906 54.8968 42.9303 54.8968 42.9756C54.8968 43.0209 54.9311 43.0606 54.9767 43.0606C55.0167 43.0606 55.068 43.1116 55.0851 43.1739C55.1023 43.2362 55.1536 43.2872 55.205 43.2872C55.2792 43.2872 55.2963 43.3496 55.2963 43.5705C55.2963 43.7858 55.3191 43.8538 55.3819 43.8538C55.4504 43.8538 55.4675 43.9331 55.4675 44.2504C55.4675 44.5677 55.4504 44.6471 55.3819 44.6471C55.3191 44.6471 55.2963 44.715 55.2963 44.8964C55.2963 45.0947 55.2735 45.1513 55.1822 45.174C55.1194 45.191 55.068 45.242 55.068 45.293C55.068 45.344 55.0281 45.3836 54.9824 45.3836C54.9368 45.3836 54.8968 45.4346 54.8968 45.4969C54.8968 45.5593 54.8569 45.6103 54.8112 45.6103C54.7656 45.6103 54.7256 45.6499 54.7256 45.6952C54.7256 45.7519 54.6629 45.7802 54.5259 45.7802C54.3947 45.7802 54.3262 45.8086 54.3262 45.8596C54.3262 45.9445 54.155 46.0069 53.9153 46.0069C53.824 46.0069 53.7555 46.0295 53.7555 46.0635C53.7555 46.0919 53.6642 46.1202 53.5558 46.1202C53.4474 46.1202 53.3561 46.0919 53.3561 46.0635C53.3561 46.0295 53.2933 46.0069 53.2191 46.0069C52.9623 46.0069 52.7284 45.9332 52.7284 45.8596C52.7284 45.8086 52.6656 45.7802 52.5572 45.7802C52.4373 45.7802 52.386 45.7519 52.386 45.6896C52.386 45.6386 52.3346 45.5876 52.2718 45.5706C52.1919 45.5479 52.1577 45.4913 52.1577 45.378C52.1577 45.276 52.1292 45.2136 52.0778 45.2136C52.0322 45.2136 51.9808 45.1287 51.9637 45.021C51.9409 44.9133 51.8952 44.817 51.8553 44.8C51.8096 44.7887 51.7868 44.6074 51.7868 44.2221C51.7868 43.8368 51.8096 43.6555 51.8553 43.6442C51.8952 43.6272 51.9409 43.5309 51.9637 43.4232C51.9808 43.3156 52.0322 43.2306 52.0778 43.2306C52.1292 43.2306 52.1577 43.1683 52.1577 43.0606C52.1577 42.9416 52.1862 42.8906 52.249 42.8906C52.3004 42.8906 52.3517 42.8396 52.3688 42.7773C52.3917 42.698 52.4487 42.664 52.5629 42.664C52.6713 42.664 52.7284 42.6357 52.7284 42.579C52.7284 42.5167 52.8254 42.494 53.1449 42.477C53.3675 42.4657 53.6072 42.4657 53.6699 42.477C53.7327 42.4827 53.9438 42.494 54.1436 42.494ZM63.5137 49.3781C63.5137 49.4234 63.5536 49.4631 63.5993 49.4631C63.6735 49.4631 63.6849 50.2903 63.6849 56.5454C63.6849 62.5513 63.6735 63.6278 63.605 63.6278C63.5593 63.6278 63.508 63.7128 63.4909 63.8261C63.4509 64.0187 63.4452 64.0244 63.1713 64.0244C62.9659 64.0244 62.886 64.0471 62.886 64.1037C62.886 64.1604 62.7832 64.1887 62.5379 64.2057C62.2868 64.2227 62.1726 64.2567 62.1327 64.3247C62.0928 64.3983 61.9957 64.421 61.7161 64.421C61.4251 64.421 61.3452 64.438 61.3452 64.506C61.3452 64.5683 61.271 64.591 61.037 64.591C60.8316 64.591 60.6947 64.6193 60.6376 64.676C60.5862 64.727 60.4207 64.7836 60.261 64.8006C60.0726 64.8233 59.9756 64.8629 59.9756 64.9083C59.9756 64.9649 59.8786 64.9876 59.6047 64.9876C59.3251 64.9876 59.2338 65.0046 59.2338 65.0669C59.2338 65.1236 59.1197 65.1576 58.8343 65.1859C58.549 65.2142 58.4349 65.2482 58.4349 65.3049C58.4349 65.3672 58.3379 65.3842 58.0354 65.3842C57.7159 65.3842 57.636 65.4012 57.636 65.4692C57.636 65.5315 57.5675 65.5542 57.3506 65.5542C57.1509 65.5542 57.0539 65.5825 57.0197 65.6505C56.9797 65.7185 56.8656 65.7525 56.6145 65.7695C56.3691 65.7865 56.2664 65.8148 56.2664 65.8715C56.2664 65.9281 56.1865 65.9508 55.9811 65.9508C55.7813 65.9508 55.6843 65.9791 55.6501 66.0471C55.6101 66.1151 55.496 66.1491 55.2449 66.1661C54.9995 66.1831 54.8968 66.2114 54.8968 66.2681C54.8968 66.3304 54.8055 66.3474 54.5259 66.3474C54.252 66.3474 54.155 66.3701 54.155 66.4267C54.155 66.4777 54.0409 66.5117 53.7612 66.5287C53.4987 66.5514 53.3332 66.591 53.2705 66.6534C53.202 66.7214 53.0707 66.744 52.7797 66.744C52.4659 66.744 52.386 66.761 52.386 66.829C52.386 66.8913 52.3175 66.914 52.1006 66.914C51.9009 66.914 51.8039 66.9423 51.7697 67.0103C51.7297 67.0783 51.6156 67.1123 51.3645 67.1293C51.1362 67.1463 51.0164 67.1803 51.0164 67.2256C51.0164 67.2766 50.8909 67.3049 50.6398 67.3219C50.4343 67.3333 50.246 67.3729 50.2232 67.4126C50.2004 67.4522 50.0463 67.4976 49.8865 67.5202C49.6925 67.5429 49.5898 67.5769 49.5898 67.6279C49.5898 67.6846 49.4928 67.7072 49.2188 67.7072C48.9278 67.7072 48.8479 67.7242 48.8479 67.7922C48.8479 67.8545 48.7794 67.8772 48.574 67.8772C48.3743 67.8772 48.2773 67.9055 48.2031 67.9905C48.1289 68.0812 48.0376 68.1038 47.7922 68.1038C47.5639 68.1038 47.4784 68.1265 47.4784 68.1831C47.4784 68.2341 47.3642 68.2681 47.1017 68.2908C46.8849 68.3078 46.7023 68.3475 46.6794 68.3928C46.6509 68.4324 46.4797 68.4778 46.2857 68.4891C46.0403 68.5061 45.9376 68.5344 45.9376 68.5911C45.9376 68.6478 45.852 68.6704 45.6237 68.6704C45.3955 68.6704 45.3099 68.6931 45.3099 68.7497C45.3099 68.8007 45.1957 68.8404 44.9447 68.8687C44.705 68.8914 44.568 68.931 44.5452 68.9877C44.5224 69.0387 44.4254 69.067 44.2256 69.067C44.0202 69.067 43.9403 69.0897 43.9403 69.1464C43.9403 69.203 43.8376 69.2313 43.5922 69.2483C43.3411 69.2653 43.227 69.2993 43.187 69.3673C43.1528 69.4353 43.0558 69.4636 42.8561 69.4636C42.6107 69.4636 42.5707 69.4466 42.5707 69.3503C42.5707 69.288 42.5308 69.237 42.4851 69.237C42.411 69.237 42.3995 68.8121 42.3995 65.7525C42.3995 62.6929 42.411 62.268 42.4851 62.268C42.5308 62.268 42.5707 62.2283 42.5707 62.1773C42.5707 62.1263 42.6221 62.0753 42.6849 62.0583C42.7476 62.0413 42.799 61.9903 42.799 61.9507C42.799 61.894 42.8789 61.8713 43.0843 61.8713C43.3012 61.8713 43.3697 61.8487 43.3697 61.7864C43.3697 61.7184 43.4496 61.7014 43.7406 61.7014C44.0145 61.7014 44.1115 61.6844 44.1115 61.6221C44.1115 61.5484 44.3455 61.4747 44.6023 61.4747C44.6879 61.4747 44.7392 61.4407 44.7392 61.3897C44.7392 61.3218 44.8191 61.3048 45.1387 61.3048C45.4411 61.3048 45.5381 61.2878 45.5381 61.2254C45.5381 61.1688 45.6523 61.1348 45.9376 61.1065C46.2229 61.0781 46.337 61.0441 46.337 60.9875C46.337 60.9251 46.4283 60.9081 46.708 60.9081C46.999 60.9081 47.0789 60.8912 47.0789 60.8232C47.0789 60.7608 47.1417 60.7382 47.3014 60.7382C47.6381 60.7382 47.8778 60.6758 47.8778 60.5909C47.8778 60.5342 47.9577 60.5115 48.1631 60.5115C48.38 60.5115 48.4485 60.4889 48.4485 60.4265C48.4485 60.3642 48.5226 60.3416 48.7566 60.3416C48.9678 60.3416 49.099 60.3132 49.1618 60.2509C49.2188 60.1942 49.39 60.1489 49.6183 60.1263C49.8808 60.1093 49.9892 60.0753 49.9892 60.0243C49.9892 59.9676 50.0748 59.9449 50.3031 59.9449C50.5428 59.9449 50.6169 59.928 50.6169 59.86C50.6169 59.7976 50.6797 59.775 50.8623 59.775C51.1819 59.775 51.3588 59.724 51.3588 59.6277C51.3588 59.5653 51.4558 59.5483 51.7582 59.5483C52.0778 59.5483 52.1577 59.5313 52.1577 59.4633C52.1577 59.401 52.2262 59.3784 52.443 59.3784C52.6428 59.3784 52.7398 59.35 52.774 59.282C52.814 59.214 52.9281 59.1801 53.1792 59.1631C53.4245 59.1461 53.5273 59.1177 53.5273 59.0611C53.5273 58.9987 53.6186 58.9817 53.8982 58.9817C54.1664 58.9817 54.2748 58.9591 54.3091 58.8968C54.3433 58.8344 54.4974 58.8004 54.8284 58.7721C55.165 58.7494 55.2963 58.7155 55.2963 58.6645C55.2963 58.6021 55.399 58.5851 55.6957 58.5851C55.9982 58.5851 56.0952 58.5681 56.0952 58.5058C56.0952 58.4605 56.1865 58.4208 56.3292 58.3982C56.4547 58.3812 56.5803 58.3528 56.5974 58.3302C56.6202 58.3075 56.643 56.6474 56.6544 54.6417C56.6659 51.4688 56.6773 50.9928 56.7514 50.9928C56.7971 50.9928 56.837 50.9532 56.837 50.9079C56.837 50.8512 56.8998 50.8229 57.0368 50.8229C57.168 50.8229 57.2365 50.7945 57.2365 50.7435C57.2365 50.6926 57.3506 50.6586 57.6131 50.6359C57.8414 50.6189 58.0126 50.5792 58.0411 50.5339C58.0697 50.4829 58.2409 50.4489 58.549 50.4376C58.8686 50.4206 59.0055 50.3923 59.0055 50.3413C59.0055 50.2903 59.1254 50.2619 59.3822 50.2449C59.6047 50.2336 59.7759 50.194 59.7987 50.1486C59.8273 50.109 59.9642 50.058 60.1126 50.0466C60.2838 50.024 60.3751 49.99 60.3751 49.939C60.3751 49.8823 60.4721 49.8597 60.746 49.8597C61.0256 49.8597 61.1169 49.8427 61.1169 49.7803C61.1169 49.7237 61.2311 49.6897 61.5164 49.6614C61.8017 49.633 61.9159 49.599 61.9159 49.5424C61.9159 49.4801 62.0072 49.4631 62.2868 49.4631C62.5778 49.4631 62.6577 49.4461 62.6577 49.3781C62.6577 49.3101 62.7433 49.2931 63.0857 49.2931C63.4281 49.2931 63.5137 49.3101 63.5137 49.3781Z" fill="#323232"/>
</svg>
